<svg width="70" height="70" viewBox="0 0 70 70" fill="none" xmlns="http://www.w3.org/2000/svg">
<g clip-path="url(#clip0)">
<rect width="70" height="70" rx="10" fill="#3E2C1E"/>
<path d="M94.8573 -15.5184C94.8573 -15.5184 68.4787 -2.95593 73.1606 28.1212C78.4135 62.967 47.9525 77.9223 27.1408 69.308C6.32912 60.6639 7.78508 28.6895 -31.7828 27.7024C-72.2071 26.7154 -80.7145 -13.5443 -80.7145 -13.5443" stroke="white" stroke-opacity="0.15" stroke-width="2" stroke-miterlimit="10"/>
<path d="M64.3677 -24.8806C64.3677 -24.8806 52.9484 1.68004 57.0308 28.0911C61.1418 54.5021 42.671 57.6128 35.3341 54.5021C20.0894 48.1013 17.1489 13.8237 -7.4597 11.6103C-25.959 9.93536 -50.853 23.1857 -64.0423 -6.87439" stroke="white" stroke-opacity="0.15" stroke-width="2" stroke-miterlimit="10"/>
<path d="M52.0634 -13.0358C52.0634 -13.0358 56.1743 14.0931 37.9891 9.24758C17.1489 3.68422 17.4629 -9.35679 -8.91565 2.96636C-18.308 7.36322 -56.1059 8.64937 -48.4835 -15.5184" stroke="white" stroke-opacity="0.15" stroke-width="2" stroke-miterlimit="10"/>
<path d="M38.8741 45.1403C43.2415 45.1403 46.782 39.6766 46.782 32.9368C46.782 26.197 43.2415 20.7333 38.8741 20.7333C34.5067 20.7333 30.9663 26.197 30.9663 32.9368C30.9663 39.6766 34.5067 45.1403 38.8741 45.1403Z" stroke="white" stroke-opacity="0.15" stroke-width="2" stroke-miterlimit="10"/>
<g filter="url(#filter0_d)">
<g clip-path="url(#clip1)">
<!-- Bear face -->
<circle cx="35" cy="32" r="18" fill="#8B6F47"/>
<!-- Ears -->
<circle cx="23" cy="20" r="5.5" fill="#8B6F47"/>
<circle cx="47" cy="20" r="5.5" fill="#8B6F47"/>
<circle cx="23" cy="20" r="3.5" fill="#6B5538"/>
<circle cx="47" cy="20" r="3.5" fill="#6B5538"/>
<!-- Snout -->
<ellipse cx="35" cy="36" rx="8" ry="6.5" fill="#C4A573"/>
<!-- Eyes -->
<circle cx="29" cy="29" r="2.5" fill="#2C1810"/>
<circle cx="41" cy="29" r="2.5" fill="#2C1810"/>
<circle cx="29.8" cy="28.2" r="1" fill="white" opacity="0.6"/>
<circle cx="41.8" cy="28.2" r="1" fill="white" opacity="0.6"/>
<!-- Nose -->
<ellipse cx="35" cy="35" rx="2.5" ry="2" fill="#2C1810"/>
<!-- Mouth -->
<path d="M35 37 Q32 39 30 38.5 M35 37 Q38 39 40 38.5" stroke="#2C1810" stroke-width="1.5" stroke-linecap="round" fill="none"/>
</g>
</g>
</g>
<defs>
<filter id="filter0_d" x="2" y="7" width="66" height="66" filterUnits="userSpaceOnUse" color-interpolation-filters="sRGB">
<feFlood flood-opacity="0" result="BackgroundImageFix"/>
<feColorMatrix in="SourceAlpha" type="matrix" values="0 0 0 0 0 0 0 0 0 0 0 0 0 0 0 0 0 0 127 0"/>
<feOffset dy="4"/>
<feGaussianBlur stdDeviation="7.5"/>
<feColorMatrix type="matrix" values="0 0 0 0 0 0 0 0 0 0 0 0 0 0 0 0 0 0 0.25 0"/>
<feBlend mode="normal" in2="BackgroundImageFix" result="effect1_dropShadow"/>
<feBlend mode="normal" in="SourceGraphic" in2="effect1_dropShadow" result="shape"/>
</filter>
<clipPath id="clip0">
<rect width="70" height="70" rx="10" fill="white"/>
</clipPath>
<clipPath id="clip1">
<rect width="52" height="52" fill="white" transform="translate(9 9)"/>
</clipPath>
</defs>
</svg>